<svg width="86.40001220703125px" height="64.43999023437499px" xmlns="http://www.w3.org/2000/svg" viewBox="206.79999389648438 42.780004882812506 86.40001220703125 64.43999023437499" style="background: none;" preserveAspectRatio="xMidYMid"><defs><filter id="editing-extrude-glow"><feFlood flood-color="#333333" result="flood-1"></feFlood><feMorphology operator="erode" radius="1" in="SourceAlpha" result="erode"></feMorphology><feComposite operator="in" in="flood-1" in2="erode" result="comp1"></feComposite><feConvolveMatrix order="3,3" divisor="1" in="comp1" result="convolve" kernelMatrix="0 0 0 1 1 1 0 0 0"></feConvolveMatrix><feOffset dx="-3" dy="0" in="convolve" result="extrude"></feOffset><feComposite operator="in" in="flood-1" in2="extrude" result="comp-extrude"></feComposite><feFlood flood-color="#000000" result="flood-2"></feFlood><feComposite operator="in" in="flood-2" in2="SourceAlpha" result="comp2"></feComposite><feMorphology operator="dilate" radius="1" in="comp2" result="dilate"></feMorphology><feOffset dx="-4.5" dy="0" in="dilate" result="offset"></feOffset><feGaussianBlur in="offset" stdDeviation="5.8" result="blur"></feGaussianBlur><feComponentTransfer in="blur" result="shadow"><feFuncA type="linear" slope="0.8" intercept="-0.2"></feFuncA></feComponentTransfer><feMerge><feMergeNode in="shadow"></feMergeNode><feMergeNode in="comp-extrude"></feMergeNode><feMergeNode in="SourceGraphic"></feMergeNode></feMerge></filter></defs><g filter="url(#editing-extrude-glow)"><g transform="translate(226.44499687850475, 84.12499904632568)"><path d="M17.32-10.79L17.32-10.79L17.32-10.79Q17.32 0.29 5.30 0.29L5.30 0.29L5.30 0.29Q3.38 0.29 0.21-0.18L0.21-0.18L3.12-15.55L3.12-15.55Q3.33-16.59 3.46-17.19L3.46-17.19L3.46-17.19Q7.41-17.47 9.17-17.47L9.17-17.47L9.17-17.47Q10.92-17.47 12.53-17.11L12.53-17.11L12.53-17.11Q14.14-16.74 15.21-15.94L15.21-15.94L15.21-15.94Q17.32-14.35 17.32-10.79ZM11.96-11.75L11.96-11.75L11.96-11.75Q11.96-15.63 9.18-15.63L9.18-15.63L8.92-15.63L8.92-15.63Q8.79-15.63 8.66-15.60L8.66-15.60L5.98-1.64L5.98-1.64Q6.08-1.59 6.19-1.59L6.19-1.59L6.40-1.59L6.40-1.59Q7.36-1.59 8.36-2.18L8.36-2.18L8.36-2.18Q9.36-2.78 10.14-4.00L10.14-4.00L10.14-4.00Q11.96-6.84 11.96-11.75ZM20.72-12.66L20.72-12.66L20.72-12.66Q19.84-13.34 19.84-14.78L19.84-14.78L19.84-14.78Q19.84-16.22 20.79-16.98L20.79-16.98L20.79-16.98Q21.74-17.73 23.37-17.73L23.37-17.73L23.37-17.73Q24.41-17.73 26.88-17.37L26.88-17.37L28.65-17.11L28.65-17.11Q29.54-17.00 30.46-17.00L30.46-17.00L30.46-17.00Q31.38-17.00 32.01-17.39L32.01-17.39L32.01-17.39Q32.94-16.56 32.94-15.37L32.94-15.37L32.94-15.37Q32.94-14.17 31.88-13.31L31.88-13.31L31.88-13.31Q30.78-12.40 29.38-12.40L29.38-12.40L29.38-12.40Q28.70-12.40 27.61-12.58L27.61-12.58L27.61-12.58Q26.34-8.58 26.34-5.80L26.34-5.80L26.34-5.80Q26.34-3.02 27.74-1.56L27.74-1.56L27.74-1.56Q27.09-0.39 26.13 0.07L26.13 0.07L26.13 0.07Q25.17 0.52 23.73 0.52L23.73 0.52L23.73 0.52Q22.28 0.52 21.39-0.27L21.39-0.27L21.39-0.27Q20.49-1.07 20.49-2.70L20.49-2.70L20.49-2.70Q20.49-4.60 21.53-7.72L21.53-7.72L21.53-7.72Q22.57-10.82 24.13-13.18L24.13-13.18L24.13-13.18Q23.37-13.26 22.59-13.26L22.59-13.26L22.59-13.26Q20.98-13.26 20.72-12.66ZM42.25-12.01L42.25-12.01L42.25-12.01Q42.64-12.79 42.64-13.52L42.64-13.52L42.64-13.52Q42.64-14.25 42.56-14.65L42.56-14.65L42.56-14.65Q42.48-15.05 42.30-15.37L42.30-15.37L42.30-15.37Q41.91-16.04 41.13-16.04L41.13-16.04L41.13-16.04Q40.17-16.04 39.39-15.34L39.39-15.34L39.39-15.34Q38.56-14.61 38.56-13.47L38.56-13.47L38.56-13.47Q38.56-12.74 39.07-12.18L39.07-12.18L39.07-12.18Q39.57-11.62 40.35-11.10L40.35-11.10L40.35-11.10Q41.13-10.58 42.02-10.06L42.02-10.06L42.02-10.06Q42.90-9.54 43.68-8.92L43.68-8.92L43.68-8.92Q45.47-7.49 45.47-5.56L45.47-5.56L45.47-5.56Q45.47-4.26 44.79-3.16L44.79-3.16L44.79-3.16Q44.10-2.05 42.95-1.25L42.95-1.25L42.95-1.25Q40.46 0.52 37.15 0.52L37.15 0.52L37.15 0.52Q34.48 0.52 33.10-0.35L33.10-0.35L33.10-0.35Q31.72-1.22 31.72-2.55L31.72-2.55L31.72-2.55Q31.72-4.91 33.57-5.51L33.57-5.51L33.57-5.51Q34.09-5.69 34.88-5.69L34.88-5.69L34.88-5.69Q35.67-5.69 36.58-5.36L36.58-5.36L36.58-5.36Q36.17-4.29 36.17-3.33L36.17-3.33L36.17-3.33Q36.17-1.25 37.65-1.25L37.65-1.25L37.65-1.25Q38.61-1.25 39.40-1.95L39.40-1.95L39.40-1.95Q40.20-2.65 40.20-3.45L40.20-3.45L40.20-3.45Q40.20-4.24 39.69-4.81L39.69-4.81L39.69-4.81Q39.18-5.38 38.43-5.84L38.43-5.84L38.43-5.84Q37.67-6.29 36.80-6.73L36.80-6.73L36.80-6.73Q35.93-7.18 35.18-7.80L35.18-7.80L35.18-7.80Q33.41-9.23 33.41-11.52L33.41-11.52L33.41-11.52Q33.41-13.00 34.14-14.16L34.14-14.16L34.14-14.16Q34.87-15.31 36.04-16.09L36.04-16.09L36.04-16.09Q38.38-17.68 41.25-17.68L41.25-17.68L41.25-17.68Q44.12-17.68 45.51-16.82L45.51-16.82L45.51-16.82Q46.90-15.96 46.90-14.51L46.90-14.51L46.90-14.51Q46.90-13.23 45.92-12.43L45.92-12.43L45.92-12.43Q45.06-11.75 44.02-11.75L44.02-11.75L44.02-11.75Q42.98-11.75 42.25-12.01Z" fill="#eb6c6c"></path></g></g><style>text {
  font-size: 64px;
  font-family: Arial Black;
  dominant-baseline: central;
  text-anchor: middle;
}</style></svg>